<svg width="76" height="56" viewBox="0 0 76 56" fill="none" xmlns="http://www.w3.org/2000/svg">
<g filter="url(#filter0_dd_405_10635)">
<rect x="3" y="3" width="70" height="48" rx="10" fill="white"/>
<path fill-rule="evenodd" clip-rule="evenodd" d="M34.5145 24.7144C34.1432 25.3021 33.9576 26.0101 33.9576 26.8391H33.9551C33.9551 27.8839 34.2251 28.6916 34.7651 29.2607C35.3051 29.8299 35.9964 30.1145 36.8358 30.1145C37.3814 30.1145 37.8402 30.0553 38.2115 29.9337C38.8002 29.7536 39.3996 29.2978 40.0115 28.5658C40.0559 28.6256 40.1322 28.7424 40.2428 28.9177C40.3509 29.0923 40.4297 29.2078 40.479 29.2697C40.5272 29.3288 40.6097 29.425 40.7241 29.5563C40.8391 29.689 40.9716 29.8278 41.1247 29.9708C41.3103 30.0553 41.4691 30.043 41.5997 29.9337C41.676 29.8622 42.1666 29.3955 43.0735 28.5293C43.161 28.4579 43.2041 28.3733 43.2041 28.2785C43.2041 28.1939 43.1716 28.0977 43.106 27.9898L42.731 27.4398C42.6541 27.3264 42.5729 27.1408 42.4941 26.881C42.4085 26.6064 42.3666 26.3176 42.3704 26.0273V21.6713C42.3704 21.6246 42.366 21.4713 42.3547 21.2135C42.3435 20.9564 42.3279 20.7873 42.3047 20.709C42.2697 20.5694 42.2368 20.4291 42.206 20.2883C42.1635 20.0821 42.116 19.9267 42.0597 19.8181C41.994 19.6895 41.9201 19.5661 41.8385 19.449C41.7447 19.3115 41.6447 19.1816 41.5366 19.062C40.8366 18.354 39.8659 18 38.6221 18H38.214C37.2439 18.0591 36.3952 18.3478 35.6689 18.864C34.9439 19.3796 34.4882 20.1714 34.3026 21.2396C34.2924 21.2809 34.2869 21.3234 34.2863 21.3661C34.2863 21.5338 34.3795 21.6418 34.5638 21.6913L36.4464 21.9435C36.6208 21.9078 36.7302 21.7689 36.7752 21.529C36.8502 21.1455 37.0189 20.8451 37.2814 20.6286C37.5439 20.4107 37.8552 20.2869 38.2152 20.2498H38.3421C38.834 20.2498 39.194 20.4306 39.4228 20.7915C39.574 21.054 39.6534 21.571 39.6534 22.3381V22.644C39.1726 22.6841 38.6923 22.732 38.2127 22.7876C37.3508 22.9079 36.6252 23.1059 36.037 23.3815C35.392 23.6826 34.8857 24.1267 34.5145 24.7144ZM37.0908 27.6041C36.8783 27.3189 36.7727 26.9456 36.7727 26.4775L36.7714 26.4789C36.7714 25.4471 37.2508 24.781 38.2115 24.482C38.5377 24.3858 39.0184 24.337 39.6521 24.337V24.7859C39.6521 25.1701 39.6496 25.4471 39.644 25.6155C39.6309 25.8371 39.5982 26.0567 39.5465 26.2713C39.4884 26.533 39.3973 26.7845 39.2759 27.0185C39.0252 27.534 38.6696 27.8571 38.2133 27.9898C38.1902 27.9898 38.149 27.9966 38.089 28.0083C38.0283 28.0193 37.9833 28.0248 37.9496 28.0248C37.5896 28.0248 37.3046 27.8846 37.0908 27.6041Z" fill="#221F1F"/>
<path d="M43.6446 32.2736C43.6706 32.2206 43.7034 32.1719 43.7421 32.1293C44.0159 31.9265 44.2778 31.7877 44.5297 31.7162C44.9249 31.5999 45.3308 31.5335 45.7397 31.5182C45.8435 31.5058 45.9483 31.5119 46.0503 31.5361C46.5416 31.5863 46.8379 31.6749 46.9347 31.809C46.9797 31.8791 46.9997 31.987 46.9997 32.1307V32.2565C46.9997 32.6771 46.896 33.172 46.6891 33.7412C46.481 34.311 46.1916 34.7709 45.8228 35.1187C45.7666 35.1682 45.7178 35.1909 45.6741 35.1909C45.6514 35.1905 45.6292 35.1844 45.6091 35.173C45.5416 35.1359 45.5272 35.0706 45.5591 34.9751C45.9647 33.9309 46.1653 33.2057 46.1653 32.7974C46.1653 32.6648 46.1422 32.5685 46.0997 32.5087C45.9903 32.3664 45.6853 32.2936 45.1828 32.2936C44.9978 32.2936 44.7797 32.3059 44.5303 32.3307C44.2553 32.3678 44.0046 32.4029 43.7759 32.4386C43.7084 32.4386 43.6671 32.4262 43.6446 32.4015C43.6221 32.3767 43.6178 32.3541 43.629 32.3293C43.629 32.3176 43.6334 32.2998 43.6446 32.2764V32.2736Z" fill="#FF9900"/>
<path d="M29.0338 31.9685C29.0875 31.8723 29.1744 31.8654 29.295 31.95C32.022 33.6897 34.9902 34.5606 38.1984 34.5606C40.336 34.5606 42.4486 34.1214 44.533 33.2457L44.7693 33.1378C44.873 33.0883 44.9462 33.0539 44.9899 33.0305C45.1543 32.9584 45.2824 32.9934 45.3756 33.1378C45.4681 33.2814 45.4381 33.4141 45.2862 33.5337C45.0887 33.6897 44.838 33.8705 44.5318 34.0733C43.5942 34.6858 42.5473 35.1594 41.3904 35.4962C40.2348 35.8302 39.1066 36 38.0034 36C36.3015 36 34.6921 35.6721 33.1764 35.0184C31.6765 34.3769 30.2952 33.4405 29.1 32.2552C29.0338 32.1974 29 32.1356 29 32.0764C29.0007 32.0375 29.0125 31.9997 29.0338 31.9685Z" fill="#FF9900"/>
</g>
<defs>
<filter id="filter0_dd_405_10635" x="0" y="0" width="76" height="56" filterUnits="userSpaceOnUse" color-interpolation-filters="sRGB">
<feFlood flood-opacity="0" result="BackgroundImageFix"/>
<feColorMatrix in="SourceAlpha" type="matrix" values="0 0 0 0 0 0 0 0 0 0 0 0 0 0 0 0 0 0 127 0" result="hardAlpha"/>
<feOffset dy="2"/>
<feGaussianBlur stdDeviation="1.5"/>
<feColorMatrix type="matrix" values="0 0 0 0 0 0 0 0 0 0 0 0 0 0 0 0 0 0 0.168 0"/>
<feBlend mode="normal" in2="BackgroundImageFix" result="effect1_dropShadow_405_10635"/>
<feColorMatrix in="SourceAlpha" type="matrix" values="0 0 0 0 0 0 0 0 0 0 0 0 0 0 0 0 0 0 127 0" result="hardAlpha"/>
<feOffset/>
<feGaussianBlur stdDeviation="1.5"/>
<feColorMatrix type="matrix" values="0 0 0 0 0 0 0 0 0 0 0 0 0 0 0 0 0 0 0.084 0"/>
<feBlend mode="normal" in2="effect1_dropShadow_405_10635" result="effect2_dropShadow_405_10635"/>
<feBlend mode="normal" in="SourceGraphic" in2="effect2_dropShadow_405_10635" result="shape"/>
</filter>
</defs>
</svg>
