<svg width="76" height="56" viewBox="0 0 76 56" fill="none" xmlns="http://www.w3.org/2000/svg">
<g filter="url(#filter0_dd_404_6321)">
<rect x="3" y="3" width="70" height="48" rx="10" fill="white"/>
<path fill-rule="evenodd" clip-rule="evenodd" d="M46.64 27.2044C46.64 26.5663 46.5827 25.9526 46.4764 25.3635H38V28.8449H42.8436C42.635 29.9699 42.0009 30.9231 41.0477 31.5613V33.8194H43.9564C45.6582 32.2526 46.64 29.9453 46.64 27.2044Z" fill="#4285F4"/>
<path fill-rule="evenodd" clip-rule="evenodd" d="M38.0002 36C40.4302 36 42.4675 35.1941 43.9566 33.8195L41.048 31.5613C40.2421 32.1013 39.2112 32.4204 38.0002 32.4204C35.6562 32.4204 33.6721 30.8372 32.9643 28.71H29.9575V31.0418C31.4384 33.9831 34.4821 36 38.0002 36Z" fill="#34A853"/>
<path fill-rule="evenodd" clip-rule="evenodd" d="M32.9641 28.7101C32.7841 28.1701 32.6818 27.5933 32.6818 27.0001C32.6818 26.4069 32.7841 25.8301 32.9641 25.2901V22.9583H29.9573C29.3477 24.1733 29 25.5478 29 27.0001C29 28.4523 29.3477 29.8269 29.9573 31.0419L32.9641 28.7101Z" fill="#FBBC05"/>
<path fill-rule="evenodd" clip-rule="evenodd" d="M38.0002 21.5795C39.3216 21.5795 40.508 22.0336 41.4407 22.9255L44.0221 20.3441C42.4634 18.8918 40.4262 18 38.0002 18C34.4821 18 31.4384 20.0168 29.9575 22.9582L32.9643 25.29C33.6721 23.1627 35.6562 21.5795 38.0002 21.5795Z" fill="#EA4335"/>
</g>
<defs>
<filter id="filter0_dd_404_6321" x="0" y="0" width="76" height="56" filterUnits="userSpaceOnUse" color-interpolation-filters="sRGB">
<feFlood flood-opacity="0" result="BackgroundImageFix"/>
<feColorMatrix in="SourceAlpha" type="matrix" values="0 0 0 0 0 0 0 0 0 0 0 0 0 0 0 0 0 0 127 0" result="hardAlpha"/>
<feOffset dy="2"/>
<feGaussianBlur stdDeviation="1.5"/>
<feColorMatrix type="matrix" values="0 0 0 0 0 0 0 0 0 0 0 0 0 0 0 0 0 0 0.168 0"/>
<feBlend mode="normal" in2="BackgroundImageFix" result="effect1_dropShadow_404_6321"/>
<feColorMatrix in="SourceAlpha" type="matrix" values="0 0 0 0 0 0 0 0 0 0 0 0 0 0 0 0 0 0 127 0" result="hardAlpha"/>
<feOffset/>
<feGaussianBlur stdDeviation="1.5"/>
<feColorMatrix type="matrix" values="0 0 0 0 0 0 0 0 0 0 0 0 0 0 0 0 0 0 0.084 0"/>
<feBlend mode="normal" in2="effect1_dropShadow_404_6321" result="effect2_dropShadow_404_6321"/>
<feBlend mode="normal" in="SourceGraphic" in2="effect2_dropShadow_404_6321" result="shape"/>
</filter>
</defs>
</svg>
