<svg width="29" height="29" viewBox="0 0 29 29" fill="none" xmlns="http://www.w3.org/2000/svg">
<path fill-rule="evenodd" clip-rule="evenodd" d="M14.0308 28.126C21.7797 28.126 28.0615 21.8442 28.0615 14.0952C28.0615 6.34624 21.7797 0.0644531 14.0308 0.0644531C6.28179 0.0644531 0 6.34624 0 14.0952C0 21.8442 6.28179 28.126 14.0308 28.126ZM13.298 13.5546L7.3788 10.3748C6.99366 10.1672 6.62903 9.35986 7.33697 9.35986H20.69C21.3979 9.35986 21.0333 10.1672 20.6473 10.3748L14.7281 13.5546C14.5292 13.6612 14.2719 13.7117 14.0131 13.7117C13.7542 13.7117 13.4969 13.6612 13.298 13.5546ZM14.7281 15.2917L20.8265 12.1135C21.132 11.9541 21.132 12.1374 21.1319 12.282V12.2863V18.0414C21.1319 18.3729 20.6852 18.8306 20.3427 18.8306H7.71501C7.37249 18.8306 6.92578 18.3729 6.92578 18.0414V12.2855L6.92578 12.2812C6.92575 12.1366 6.92571 11.9533 7.23043 12.1127C7.56064 12.2847 10.6889 13.9243 12.3237 14.7811C12.8575 15.0608 13.232 15.2571 13.298 15.2917C13.5664 15.4322 13.7542 15.4488 14.0131 15.4488C14.2719 15.4488 14.4598 15.4322 14.7281 15.2917Z" fill="#1C2520"/>
</svg>
