<svg width="28" height="29" viewBox="0 0 28 29" fill="none" xmlns="http://www.w3.org/2000/svg">
<path fill-rule="evenodd" clip-rule="evenodd" d="M14 28.0645C21.732 28.0645 28 21.7964 28 14.0645C28 6.33247 21.732 0.0644531 14 0.0644531C6.26801 0.0644531 0 6.33247 0 14.0645C0 21.7964 6.26801 28.0645 14 28.0645ZM10.2127 7.10286C10.7432 6.95795 11.2982 7.22864 11.5088 7.73721V7.73994L12.6025 10.3648C12.7884 10.8105 12.6599 11.3246 12.2853 11.6308L10.9373 12.7327C11.8478 14.6576 13.4064 16.2161 15.3313 17.1266L16.4359 15.7787C16.7394 15.4041 17.2562 15.2755 17.7019 15.4615L20.3268 16.5552C20.8353 16.7657 21.106 17.3208 20.9611 17.8512L20.3049 20.2574C20.1736 20.7331 19.7416 21.064 19.2495 21.064C12.4849 21.064 7 15.5791 7 8.8145C7 8.32234 7.33084 7.89033 7.8066 7.75908L10.2127 7.10286Z" fill="#1C2520"/>
</svg>
