<svg width="24" height="24" viewBox="0 0 24 24" fill="none" xmlns="http://www.w3.org/2000/svg">
<circle cx="12" cy="12" r="12" fill="#4B4B4B"/>
<path d="M18.5893 14.3692L18.6095 14.3019C19.1302 12.8115 19.1302 11.1885 18.6095 9.69808L18.5893 9.63077C18.0981 8.27653 17.2025 7.10598 16.0239 6.27768C14.8453 5.44938 13.4406 5.00335 12 5C10.559 5.00142 9.15339 5.44669 7.9744 6.27525C6.7954 7.10381 5.90025 8.27544 5.41069 9.63077L5.3905 9.69808C4.86983 11.1885 4.86983 12.8115 5.3905 14.3019L5.41069 14.3692C5.90025 15.7246 6.7954 16.8962 7.9744 17.7247C9.15339 18.5533 10.559 18.9986 12 19C13.441 18.9986 14.8466 18.5533 16.0256 17.7247C17.2046 16.8962 18.0998 15.7246 18.5893 14.3692ZM10.2837 14.6923H13.7163C13.3714 15.763 12.7841 16.7396 12 17.5462C11.2159 16.7396 10.6286 15.763 10.2837 14.6923ZM10.001 13.6154C9.79464 12.5483 9.79464 11.4517 10.001 10.3846H13.999C14.1015 10.917 14.1533 11.4579 14.1538 12C14.1536 12.5422 14.1018 13.0831 13.999 13.6154H10.001ZM6.07703 12C6.07817 11.454 6.15288 10.9107 6.29914 10.3846H8.9039C8.72442 11.4541 8.72442 12.5459 8.9039 13.6154H6.29914C6.15288 13.0893 6.07817 12.546 6.07703 12ZM13.7163 9.30769H10.2837C10.6286 8.23702 11.2159 7.26039 12 6.45385C12.7841 7.26039 13.3714 8.23702 13.7163 9.30769ZM15.0961 10.3846H17.7009C17.9971 11.4412 17.9971 12.5588 17.7009 13.6154H15.0961C15.2756 12.5459 15.2756 11.4541 15.0961 10.3846ZM17.2768 9.30769H14.8538C14.5299 8.17377 13.978 7.11791 13.2317 6.20481C14.0934 6.39086 14.9031 6.76565 15.6026 7.30218C16.302 7.83872 16.8738 8.52365 17.2768 9.30769ZM10.7683 6.20481C10.022 7.11791 9.47006 8.17377 9.1462 9.30769H6.72317C7.12617 8.52365 7.69798 7.83872 8.39744 7.30218C9.0969 6.76565 9.90661 6.39086 10.7683 6.20481ZM6.72317 14.6923H9.1462C9.47006 15.8262 10.022 16.8821 10.7683 17.7952C9.90608 17.6105 9.09578 17.2362 8.39613 16.6995C7.69648 16.1628 7.12502 15.4772 6.72317 14.6923ZM13.2317 17.7952C13.978 16.8821 14.5299 15.8262 14.8538 14.6923H17.2768C16.875 15.4772 16.3035 16.1628 15.6039 16.6995C14.9042 17.2362 14.0939 17.6105 13.2317 17.7952Z" fill="white"/>
</svg>
